<svg xmlns="http://www.w3.org/2000/svg" width="900" height="490" viewBox="0 0 900 490">
<rect width="100%" height="100%" fill="white"/>
<text x="450.0" y="30.0" font-family="Arial,sans-serif" font-size="19" font-weight="bold" text-anchor="middle" fill="#222">Drone MAIN-TERM Stage-2 selected: paired policy vs MCTS</text>
<text x="250.0" y="57.0" font-family="Arial,sans-serif" font-size="14" font-weight="bold" text-anchor="middle" fill="#222">VH off · n=10</text>
<line x1="95" y1="420.0" x2="405" y2="420.0" stroke="#e5e5e5"/>
<text x="86.0" y="424.0" font-family="Arial,sans-serif" font-size="10" font-weight="normal" text-anchor="end" fill="#222">0</text>
<line x1="95" y1="331.2" x2="405" y2="331.2" stroke="#e5e5e5"/>
<text x="86.0" y="335.2" font-family="Arial,sans-serif" font-size="10" font-weight="normal" text-anchor="end" fill="#222">5</text>
<line x1="95" y1="242.5" x2="405" y2="242.5" stroke="#e5e5e5"/>
<text x="86.0" y="246.5" font-family="Arial,sans-serif" font-size="10" font-weight="normal" text-anchor="end" fill="#222">10</text>
<line x1="95" y1="153.8" x2="405" y2="153.8" stroke="#e5e5e5"/>
<text x="86.0" y="157.8" font-family="Arial,sans-serif" font-size="10" font-weight="normal" text-anchor="end" fill="#222">15</text>
<line x1="95" y1="65.0" x2="405" y2="65.0" stroke="#e5e5e5"/>
<text x="86.0" y="69.0" font-family="Arial,sans-serif" font-size="10" font-weight="normal" text-anchor="end" fill="#222">20</text>
<line x1="165" y1="260.2" x2="340" y2="242.5" stroke="#2ca02c" opacity="0.65"/>
<circle cx="165" cy="260.2" r="4" fill="#2ca02c"/><circle cx="340" cy="242.5" r="4" fill="#2ca02c"/>
<line x1="165" y1="331.2" x2="340" y2="260.2" stroke="#2ca02c" opacity="0.65"/>
<circle cx="165" cy="331.2" r="4" fill="#2ca02c"/><circle cx="340" cy="260.2" r="4" fill="#2ca02c"/>
<line x1="165" y1="189.2" x2="340" y2="224.8" stroke="#d62728" opacity="0.65"/>
<circle cx="165" cy="189.2" r="4" fill="#d62728"/><circle cx="340" cy="224.8" r="4" fill="#d62728"/>
<line x1="165" y1="349.0" x2="340" y2="260.2" stroke="#2ca02c" opacity="0.65"/>
<circle cx="165" cy="349.0" r="4" fill="#2ca02c"/><circle cx="340" cy="260.2" r="4" fill="#2ca02c"/>
<line x1="165" y1="224.8" x2="340" y2="207.0" stroke="#2ca02c" opacity="0.65"/>
<circle cx="165" cy="224.8" r="4" fill="#2ca02c"/><circle cx="340" cy="207.0" r="4" fill="#2ca02c"/>
<line x1="165" y1="313.5" x2="340" y2="242.5" stroke="#2ca02c" opacity="0.65"/>
<circle cx="165" cy="313.5" r="4" fill="#2ca02c"/><circle cx="340" cy="242.5" r="4" fill="#2ca02c"/>
<line x1="165" y1="313.5" x2="340" y2="278.0" stroke="#2ca02c" opacity="0.65"/>
<circle cx="165" cy="313.5" r="4" fill="#2ca02c"/><circle cx="340" cy="278.0" r="4" fill="#2ca02c"/>
<line x1="165" y1="278.0" x2="340" y2="224.8" stroke="#2ca02c" opacity="0.65"/>
<circle cx="165" cy="278.0" r="4" fill="#2ca02c"/><circle cx="340" cy="224.8" r="4" fill="#2ca02c"/>
<line x1="165" y1="278.0" x2="340" y2="242.5" stroke="#2ca02c" opacity="0.65"/>
<circle cx="165" cy="278.0" r="4" fill="#2ca02c"/><circle cx="340" cy="242.5" r="4" fill="#2ca02c"/>
<line x1="165" y1="278.0" x2="340" y2="260.2" stroke="#2ca02c" opacity="0.65"/>
<circle cx="165" cy="278.0" r="4" fill="#2ca02c"/><circle cx="340" cy="260.2" r="4" fill="#2ca02c"/>
<text x="165.0" y="446.0" font-family="Arial,sans-serif" font-size="12" font-weight="normal" text-anchor="middle" fill="#222">Policy</text>
<text x="340.0" y="446.0" font-family="Arial,sans-serif" font-size="12" font-weight="normal" text-anchor="middle" fill="#222">MCTS</text>
<text x="690.0" y="57.0" font-family="Arial,sans-serif" font-size="14" font-weight="bold" text-anchor="middle" fill="#222">VH on · n=10</text>
<line x1="535" y1="420.0" x2="845" y2="420.0" stroke="#e5e5e5"/>
<line x1="535" y1="331.2" x2="845" y2="331.2" stroke="#e5e5e5"/>
<line x1="535" y1="242.5" x2="845" y2="242.5" stroke="#e5e5e5"/>
<line x1="535" y1="153.8" x2="845" y2="153.8" stroke="#e5e5e5"/>
<line x1="535" y1="65.0" x2="845" y2="65.0" stroke="#e5e5e5"/>
<line x1="605" y1="242.5" x2="780" y2="136.0" stroke="#2ca02c" opacity="0.65"/>
<circle cx="605" cy="242.5" r="4" fill="#2ca02c"/><circle cx="780" cy="136.0" r="4" fill="#2ca02c"/>
<line x1="605" y1="313.5" x2="780" y2="153.8" stroke="#2ca02c" opacity="0.65"/>
<circle cx="605" cy="313.5" r="4" fill="#2ca02c"/><circle cx="780" cy="153.8" r="4" fill="#2ca02c"/>
<line x1="605" y1="295.8" x2="780" y2="171.5" stroke="#2ca02c" opacity="0.65"/>
<circle cx="605" cy="295.8" r="4" fill="#2ca02c"/><circle cx="780" cy="171.5" r="4" fill="#2ca02c"/>
<line x1="605" y1="366.8" x2="780" y2="224.8" stroke="#2ca02c" opacity="0.65"/>
<circle cx="605" cy="366.8" r="4" fill="#2ca02c"/><circle cx="780" cy="224.8" r="4" fill="#2ca02c"/>
<line x1="605" y1="295.8" x2="780" y2="207.0" stroke="#2ca02c" opacity="0.65"/>
<circle cx="605" cy="295.8" r="4" fill="#2ca02c"/><circle cx="780" cy="207.0" r="4" fill="#2ca02c"/>
<line x1="605" y1="295.8" x2="780" y2="224.8" stroke="#2ca02c" opacity="0.65"/>
<circle cx="605" cy="295.8" r="4" fill="#2ca02c"/><circle cx="780" cy="224.8" r="4" fill="#2ca02c"/>
<line x1="605" y1="349.0" x2="780" y2="224.8" stroke="#2ca02c" opacity="0.65"/>
<circle cx="605" cy="349.0" r="4" fill="#2ca02c"/><circle cx="780" cy="224.8" r="4" fill="#2ca02c"/>
<line x1="605" y1="331.2" x2="780" y2="189.2" stroke="#2ca02c" opacity="0.65"/>
<circle cx="605" cy="331.2" r="4" fill="#2ca02c"/><circle cx="780" cy="189.2" r="4" fill="#2ca02c"/>
<line x1="605" y1="295.8" x2="780" y2="171.5" stroke="#2ca02c" opacity="0.65"/>
<circle cx="605" cy="295.8" r="4" fill="#2ca02c"/><circle cx="780" cy="171.5" r="4" fill="#2ca02c"/>
<line x1="605" y1="260.2" x2="780" y2="171.5" stroke="#2ca02c" opacity="0.65"/>
<circle cx="605" cy="260.2" r="4" fill="#2ca02c"/><circle cx="780" cy="171.5" r="4" fill="#2ca02c"/>
<text x="605.0" y="446.0" font-family="Arial,sans-serif" font-size="12" font-weight="normal" text-anchor="middle" fill="#222">Policy</text>
<text x="780.0" y="446.0" font-family="Arial,sans-serif" font-size="12" font-weight="normal" text-anchor="middle" fill="#222">MCTS</text>
<text x="18.0" y="245.0" font-family="Arial,sans-serif" font-size="12" font-weight="normal" text-anchor="middle" fill="#222" transform="rotate(-90 18 245)">Solved instances /20</text>
</svg>
