<svg xmlns="http://www.w3.org/2000/svg" width="1840" height="790" viewBox="0 0 1840 790"><rect width="100%" height="100%" fill="white"/><style>text{font-family:Segoe UI,Arial,sans-serif;fill:#17212b}.title{font-size:25px;font-weight:700}.sub{font-size:13px;fill:#536273}.label{font-size:12px}.small{font-size:10px;fill:#536273}.value{font-size:12px;font-weight:700}.big{font-size:15px;font-weight:700}</style><text x="34" y="39" class="title">1 — Stage-1 baseline and best observed coverage, separated by value-head mode</text><text x="34" y="63" class="sub">Stage-1 baseline = mean test coverage of each seed&#x27;s validation-selected Stage-1 checkpoint (n=10 per cell). Best observed may use a different method per cell.</text><rect x="45.0" y="105.0" width="850.0" height="595.0" rx="5" fill="#fbfcfd" stroke="#d9e0e7"/><text x="63.0" y="135.0" class="big" text-anchor="start">VH-off</text><line x1="190.0" y1="138.0" x2="190.0" y2="664.0" stroke="#d9e0e7" stroke-width="1"/><text x="190.0" y="131.0" class="small" text-anchor="middle">0%</text><line x1="316.2" y1="138.0" x2="316.2" y2="664.0" stroke="#d9e0e7" stroke-width="1"/><text x="316.2" y="131.0" class="small" text-anchor="middle">25%</text><line x1="442.5" y1="138.0" x2="442.5" y2="664.0" stroke="#d9e0e7" stroke-width="1"/><text x="442.5" y="131.0" class="small" text-anchor="middle">50%</text><line x1="568.8" y1="138.0" x2="568.8" y2="664.0" stroke="#d9e0e7" stroke-width="1"/><text x="568.8" y="131.0" class="small" text-anchor="middle">75%</text><line x1="695.0" y1="138.0" x2="695.0" y2="664.0" stroke="#d9e0e7" stroke-width="1"/><text x="695.0" y="131.0" class="small" text-anchor="middle">100%</text><text x="178.0" y="182.0" class="small" text-anchor="end">Delivery</text><rect x="190.0" y="160.0" width="505.0" height="9.0" rx="2" fill="#9ca3af" stroke="none"/><rect x="190.0" y="172.0" width="499.9" height="9.0" rx="2" fill="#e07a1f" stroke="none"/><rect x="190.0" y="184.0" width="499.9" height="9.0" rx="2" fill="#238b45" stroke="none"/><text x="700.0" y="168.0" class="small" text-anchor="start">paper 20/20</text><text x="695.0" y="180.0" class="small" text-anchor="start">S1 19.8/20</text><text x="695.0" y="192.0" class="small" text-anchor="start">best 19.8/20</text><text x="190.0" y="208.0" class="small" text-anchor="start">best method: Stage-1 validation-selected policy</text><text x="178.0" y="240.0" class="small" text-anchor="end">TPP</text><rect x="190.0" y="218.0" width="505.0" height="9.0" rx="2" fill="#9ca3af" stroke="none"/><rect x="190.0" y="230.0" width="505.0" height="9.0" rx="2" fill="#e07a1f" stroke="none"/><rect x="190.0" y="242.0" width="505.0" height="9.0" rx="2" fill="#238b45" stroke="none"/><text x="700.0" y="226.0" class="small" text-anchor="start">paper 20/20</text><text x="700.0" y="238.0" class="small" text-anchor="start">S1 20/20</text><text x="700.0" y="250.0" class="small" text-anchor="start">best 20/20</text><text x="190.0" y="266.0" class="small" text-anchor="start">best method: Stage-1 validation-selected policy</text><text x="178.0" y="298.0" class="small" text-anchor="end">Zenotravel</text><rect x="190.0" y="276.0" width="429.2" height="9.0" rx="2" fill="#9ca3af" stroke="none"/><rect x="190.0" y="288.0" width="505.0" height="9.0" rx="2" fill="#e07a1f" stroke="none"/><rect x="190.0" y="300.0" width="505.0" height="9.0" rx="2" fill="#238b45" stroke="none"/><text x="624.2" y="284.0" class="small" text-anchor="start">paper 17/20</text><text x="700.0" y="296.0" class="small" text-anchor="start">S1 20/20</text><text x="700.0" y="308.0" class="small" text-anchor="start">best 20/20</text><text x="190.0" y="324.0" class="small" text-anchor="start">best method: Stage-1 validation-selected policy</text><text x="178.0" y="356.0" class="small" text-anchor="end">MPrime</text><rect x="190.0" y="334.0" width="479.8" height="9.0" rx="2" fill="#9ca3af" stroke="none"/><rect x="190.0" y="346.0" width="378.8" height="9.0" rx="2" fill="#e07a1f" stroke="none"/><rect x="190.0" y="358.0" width="383.8" height="9.0" rx="2" fill="#238b45" stroke="none"/><text x="674.8" y="342.0" class="small" text-anchor="start">paper 19/20</text><text x="573.8" y="354.0" class="small" text-anchor="start">S1 15/20</text><text x="578.8" y="366.0" class="small" text-anchor="start">best 15.2/20</text><text x="190.0" y="382.0" class="small" text-anchor="start">best method: Stage-2 policy (provisional)</text><text x="178.0" y="414.0" class="small" text-anchor="end">Block Grouping</text><rect x="190.0" y="392.0" width="429.2" height="9.0" rx="2" fill="#9ca3af" stroke="none"/><rect x="190.0" y="404.0" width="411.6" height="9.0" rx="2" fill="#e07a1f" stroke="none"/><rect x="190.0" y="416.0" width="411.6" height="9.0" rx="2" fill="#238b45" stroke="none"/><text x="624.2" y="400.0" class="small" text-anchor="start">paper 17/20</text><text x="606.6" y="412.0" class="small" text-anchor="start">S1 16.3/20</text><text x="606.6" y="424.0" class="small" text-anchor="start">best 16.3/20</text><text x="190.0" y="440.0" class="small" text-anchor="start">best method: Stage-1 validation-selected policy</text><text x="178.0" y="472.0" class="small" text-anchor="end">Drone</text><rect x="190.0" y="450.0" width="227.2" height="9.0" rx="2" fill="#9ca3af" stroke="none"/><rect x="190.0" y="462.0" width="149.0" height="9.0" rx="2" fill="#e07a1f" stroke="none"/><rect x="190.0" y="474.0" width="250.0" height="9.0" rx="2" fill="#238b45" stroke="none"/><text x="422.2" y="458.0" class="small" text-anchor="start">paper 9/20</text><text x="344.0" y="470.0" class="small" text-anchor="start">S1 5.9/20</text><text x="445.0" y="482.0" class="small" text-anchor="start">best 9.9/20</text><text x="190.0" y="498.0" class="small" text-anchor="start">best method: Terminal-led Stage-2 fixed MCTS</text><text x="178.0" y="530.0" class="small" text-anchor="end">FO Counters</text><rect x="190.0" y="508.0" width="151.5" height="9.0" rx="2" fill="#9ca3af" stroke="none"/><rect x="190.0" y="520.0" width="106.1" height="9.0" rx="2" fill="#e07a1f" stroke="none"/><rect x="190.0" y="532.0" width="212.1" height="9.0" rx="2" fill="#238b45" stroke="none"/><text x="346.5" y="516.0" class="small" text-anchor="start">paper 6/20</text><text x="301.1" y="528.0" class="small" text-anchor="start">S1 4.2/20</text><text x="407.1" y="540.0" class="small" text-anchor="start">best 8.4/20</text><text x="190.0" y="556.0" class="small" text-anchor="start">best method: Stage-1 PW70</text><text x="178.0" y="588.0" class="small" text-anchor="end">Rover</text><rect x="190.0" y="566.0" width="176.8" height="9.0" rx="2" fill="#9ca3af" stroke="none"/><rect x="190.0" y="578.0" width="101.0" height="9.0" rx="2" fill="#e07a1f" stroke="none"/><rect x="190.0" y="590.0" width="126.2" height="9.0" rx="2" fill="#238b45" stroke="none"/><text x="371.8" y="574.0" class="small" text-anchor="start">paper 7/20</text><text x="296.0" y="586.0" class="small" text-anchor="start">S1 4/20</text><text x="321.2" y="598.0" class="small" text-anchor="start">best 5/20</text><text x="190.0" y="614.0" class="small" text-anchor="start">best method: Stage-1 fixed MCTS</text><text x="178.0" y="646.0" class="small" text-anchor="end">Counters</text><rect x="190.0" y="624.0" width="145.5" height="9.0" rx="2" fill="#9ca3af" stroke="none"/><rect x="190.0" y="636.0" width="278.2" height="9.0" rx="2" fill="#e07a1f" stroke="none"/><rect x="190.0" y="648.0" width="328.7" height="9.0" rx="2" fill="#238b45" stroke="none"/><text x="340.5" y="632.0" class="small" text-anchor="start">paper 17/59</text><text x="473.2" y="644.0" class="small" text-anchor="start">S1 32.5/59</text><text x="523.7" y="656.0" class="small" text-anchor="start">best 38.4/59</text><text x="190.0" y="672.0" class="small" text-anchor="start">best method: Terminal-led Stage-2 narrow MCTS</text><rect x="945.0" y="105.0" width="850.0" height="595.0" rx="5" fill="#fbfcfd" stroke="#d9e0e7"/><text x="963.0" y="135.0" class="big" text-anchor="start">VH-on</text><line x1="1090.0" y1="138.0" x2="1090.0" y2="664.0" stroke="#d9e0e7" stroke-width="1"/><text x="1090.0" y="131.0" class="small" text-anchor="middle">0%</text><line x1="1216.2" y1="138.0" x2="1216.2" y2="664.0" stroke="#d9e0e7" stroke-width="1"/><text x="1216.2" y="131.0" class="small" text-anchor="middle">25%</text><line x1="1342.5" y1="138.0" x2="1342.5" y2="664.0" stroke="#d9e0e7" stroke-width="1"/><text x="1342.5" y="131.0" class="small" text-anchor="middle">50%</text><line x1="1468.8" y1="138.0" x2="1468.8" y2="664.0" stroke="#d9e0e7" stroke-width="1"/><text x="1468.8" y="131.0" class="small" text-anchor="middle">75%</text><line x1="1595.0" y1="138.0" x2="1595.0" y2="664.0" stroke="#d9e0e7" stroke-width="1"/><text x="1595.0" y="131.0" class="small" text-anchor="middle">100%</text><text x="1078.0" y="182.0" class="small" text-anchor="end">Delivery</text><rect x="1090.0" y="160.0" width="505.0" height="9.0" rx="2" fill="#9ca3af" stroke="none"/><rect x="1090.0" y="172.0" width="484.8" height="9.0" rx="2" fill="#e07a1f" stroke="none"/><rect x="1090.0" y="184.0" width="494.9" height="9.0" rx="2" fill="#238b45" stroke="none"/><text x="1600.0" y="168.0" class="small" text-anchor="start">paper 20/20</text><text x="1579.8" y="180.0" class="small" text-anchor="start">S1 19.2/20</text><text x="1589.9" y="192.0" class="small" text-anchor="start">best 19.6/20</text><text x="1090.0" y="208.0" class="small" text-anchor="start">best method: Stage-2 policy</text><text x="1078.0" y="240.0" class="small" text-anchor="end">TPP</text><rect x="1090.0" y="218.0" width="505.0" height="9.0" rx="2" fill="#9ca3af" stroke="none"/><rect x="1090.0" y="230.0" width="505.0" height="9.0" rx="2" fill="#e07a1f" stroke="none"/><rect x="1090.0" y="242.0" width="505.0" height="9.0" rx="2" fill="#238b45" stroke="none"/><text x="1600.0" y="226.0" class="small" text-anchor="start">paper 20/20</text><text x="1600.0" y="238.0" class="small" text-anchor="start">S1 20/20</text><text x="1600.0" y="250.0" class="small" text-anchor="start">best 20/20</text><text x="1090.0" y="266.0" class="small" text-anchor="start">best method: Stage-1 validation-selected policy</text><text x="1078.0" y="298.0" class="small" text-anchor="end">Zenotravel</text><rect x="1090.0" y="276.0" width="429.2" height="9.0" rx="2" fill="#9ca3af" stroke="none"/><rect x="1090.0" y="288.0" width="505.0" height="9.0" rx="2" fill="#e07a1f" stroke="none"/><rect x="1090.0" y="300.0" width="505.0" height="9.0" rx="2" fill="#238b45" stroke="none"/><text x="1524.2" y="284.0" class="small" text-anchor="start">paper 17/20</text><text x="1600.0" y="296.0" class="small" text-anchor="start">S1 20/20</text><text x="1600.0" y="308.0" class="small" text-anchor="start">best 20/20</text><text x="1090.0" y="324.0" class="small" text-anchor="start">best method: Stage-1 validation-selected policy</text><text x="1078.0" y="356.0" class="small" text-anchor="end">MPrime</text><rect x="1090.0" y="334.0" width="479.8" height="9.0" rx="2" fill="#9ca3af" stroke="none"/><rect x="1090.0" y="346.0" width="368.6" height="9.0" rx="2" fill="#e07a1f" stroke="none"/><rect x="1090.0" y="358.0" width="383.8" height="9.0" rx="2" fill="#238b45" stroke="none"/><text x="1574.8" y="342.0" class="small" text-anchor="start">paper 19/20</text><text x="1463.7" y="354.0" class="small" text-anchor="start">S1 14.6/20</text><text x="1478.8" y="366.0" class="small" text-anchor="start">best 15.2/20</text><text x="1090.0" y="382.0" class="small" text-anchor="start">best method: Stage-2 policy (provisional)</text><text x="1078.0" y="414.0" class="small" text-anchor="end">Block Grouping</text><rect x="1090.0" y="392.0" width="429.2" height="9.0" rx="2" fill="#9ca3af" stroke="none"/><rect x="1090.0" y="404.0" width="401.5" height="9.0" rx="2" fill="#e07a1f" stroke="none"/><rect x="1090.0" y="416.0" width="409.1" height="9.0" rx="2" fill="#238b45" stroke="none"/><text x="1524.2" y="400.0" class="small" text-anchor="start">paper 17/20</text><text x="1496.5" y="412.0" class="small" text-anchor="start">S1 15.9/20</text><text x="1504.0" y="424.0" class="small" text-anchor="start">best 16.2/20</text><text x="1090.0" y="440.0" class="small" text-anchor="start">best method: Stage-1 narrow fixed MCTS</text><text x="1078.0" y="472.0" class="small" text-anchor="end">Drone</text><rect x="1090.0" y="450.0" width="227.2" height="9.0" rx="2" fill="#9ca3af" stroke="none"/><rect x="1090.0" y="462.0" width="128.8" height="9.0" rx="2" fill="#e07a1f" stroke="none"/><rect x="1090.0" y="474.0" width="330.8" height="9.0" rx="2" fill="#238b45" stroke="none"/><text x="1322.2" y="458.0" class="small" text-anchor="start">paper 9/20</text><text x="1223.8" y="470.0" class="small" text-anchor="start">S1 5.1/20</text><text x="1425.8" y="482.0" class="small" text-anchor="start">best 13.1/20</text><text x="1090.0" y="498.0" class="small" text-anchor="start">best method: Terminal-led Stage-2 fixed MCTS</text><text x="1078.0" y="530.0" class="small" text-anchor="end">FO Counters</text><rect x="1090.0" y="508.0" width="151.5" height="9.0" rx="2" fill="#9ca3af" stroke="none"/><rect x="1090.0" y="520.0" width="93.4" height="9.0" rx="2" fill="#e07a1f" stroke="none"/><rect x="1090.0" y="532.0" width="184.3" height="9.0" rx="2" fill="#238b45" stroke="none"/><text x="1246.5" y="516.0" class="small" text-anchor="start">paper 6/20</text><text x="1188.4" y="528.0" class="small" text-anchor="start">S1 3.7/20</text><text x="1279.3" y="540.0" class="small" text-anchor="start">best 7.3/20</text><text x="1090.0" y="556.0" class="small" text-anchor="start">best method: Stage-1 PW70</text><text x="1078.0" y="588.0" class="small" text-anchor="end">Rover</text><rect x="1090.0" y="566.0" width="176.8" height="9.0" rx="2" fill="#9ca3af" stroke="none"/><rect x="1090.0" y="578.0" width="96.0" height="9.0" rx="2" fill="#e07a1f" stroke="none"/><rect x="1090.0" y="590.0" width="116.2" height="9.0" rx="2" fill="#238b45" stroke="none"/><text x="1271.8" y="574.0" class="small" text-anchor="start">paper 7/20</text><text x="1191.0" y="586.0" class="small" text-anchor="start">S1 3.8/20</text><text x="1211.2" y="598.0" class="small" text-anchor="start">best 4.6/20</text><text x="1090.0" y="614.0" class="small" text-anchor="start">best method: Stage-1 PW70</text><text x="1078.0" y="646.0" class="small" text-anchor="end">Counters</text><rect x="1090.0" y="624.0" width="145.5" height="9.0" rx="2" fill="#9ca3af" stroke="none"/><rect x="1090.0" y="636.0" width="159.2" height="9.0" rx="2" fill="#e07a1f" stroke="none"/><rect x="1090.0" y="648.0" width="232.0" height="9.0" rx="2" fill="#238b45" stroke="none"/><text x="1240.5" y="632.0" class="small" text-anchor="start">paper 17/59</text><text x="1254.2" y="644.0" class="small" text-anchor="start">S1 18.6/59</text><text x="1327.0" y="656.0" class="small" text-anchor="start">best 27.1/59</text><text x="1090.0" y="672.0" class="small" text-anchor="start">best method: Validation-led Stage-2 narrow MCTS</text><rect x="70.0" y="735.0" width="18.0" height="9.0" rx="0" fill="#e07a1f" stroke="none"/><text x="96.0" y="744.0" class="small" text-anchor="start">validation-selected Stage-1 policy baseline</text><rect x="365.0" y="735.0" width="18.0" height="9.0" rx="0" fill="#238b45" stroke="none"/><text x="391.0" y="744.0" class="small" text-anchor="start">best observed configuration</text><rect x="615.0" y="735.0" width="18.0" height="9.0" rx="0" fill="#9ca3af" stroke="none"/><text x="641.0" y="744.0" class="small" text-anchor="start">published domain mean (exact score shown per row)</text><text x="980.0" y="744.0" class="sub" text-anchor="start">Exact solved/total labels are means across matched seeds; Counters uses 59 instances, all other domains use 20.</text></svg>