<svg xmlns="http://www.w3.org/2000/svg" width="1780" height="650" viewBox="0 0 1780 650"><style>text{font-family:Arial,sans-serif;fill:#172033}.title{font-size:26px;font-weight:700}.sub{font-size:16px}.label{font-size:18px;font-weight:700}.value{font-size:15px}</style><rect width="100%" height="100%" fill="white"/><text x="36" y="42" class="title">PW70 from Stage-1 validation-selected checkpoints: ten-seed evidence</text><text x="36" y="72" class="sub">Mean solved /20 at 6h; PW uses Kmin=3, max width 20 and 70 simulations; full 30m/2h/6h results are in the CSVs</text><rect x="42" y="88" width="16" height="16" fill="#e8953d"/><text x="65" y="101" class="sub">VH-off policy</text><rect x="257" y="88" width="16" height="16" fill="#7396b8"/><text x="280" y="101" class="sub">VH-off fixed 20/70</text><rect x="472" y="88" width="16" height="16" fill="#2a9d8f"/><text x="495" y="101" class="sub">VH-off PW70</text><rect x="687" y="88" width="16" height="16" fill="#c66b2d"/><text x="710" y="101" class="sub">VH-on policy</text><rect x="902" y="88" width="16" height="16" fill="#496f93"/><text x="925" y="101" class="sub">VH-on fixed 20/70</text><rect x="1117" y="88" width="16" height="16" fill="#176f65"/><text x="1140" y="101" class="sub">VH-on PW70</text><rect x="70" y="373.6" width="58" height="71.4" fill="#e8953d" rx="3"/><text x="99" y="366.6" class="value" text-anchor="middle">4.2</text><rect x="148" y="312.4" width="58" height="132.6" fill="#7396b8" rx="3"/><text x="177" y="305.4" class="value" text-anchor="middle">7.8</text><rect x="226" y="302.2" width="58" height="142.8" fill="#2a9d8f" rx="3"/><text x="255" y="295.2" class="value" text-anchor="middle">8.4</text><rect x="304" y="382.1" width="58" height="62.9" fill="#c66b2d" rx="3"/><text x="333" y="375.1" class="value" text-anchor="middle">3.7</text><rect x="382" y="348.1" width="58" height="96.9" fill="#496f93" rx="3"/><text x="411" y="341.1" class="value" text-anchor="middle">5.7</text><rect x="460" y="320.9" width="58" height="124.1" fill="#176f65" rx="3"/><text x="489" y="313.9" class="value" text-anchor="middle">7.3</text><line x1="294" y1="122" x2="294" y2="445" stroke="#657080" stroke-width="2" stroke-dasharray="7 7"/><line x1="52" y1="445" x2="518" y2="445" stroke="#657080"/><text x="290" y="478" class="label" text-anchor="middle">FO Counters</text><text x="290" y="508" class="sub" text-anchor="middle">RQ2 off PW−policy: +4.2 [+3.3, +5.1], Holm p=0.00586</text><text x="290" y="537" class="sub" text-anchor="middle">RQ4 on PW−policy: +3.6 [+2.7, +4.5], Holm p=0.00586</text><text x="290" y="566" class="sub" text-anchor="middle">Cross-cell: +3.1; interaction: -0.6 [-1.9, +0.7]</text><rect x="635" y="377.0" width="58" height="68.0" fill="#e8953d" rx="3"/><text x="664" y="370.0" class="value" text-anchor="middle">4.0</text><rect x="713" y="360.0" width="58" height="85.0" fill="#7396b8" rx="3"/><text x="742" y="353.0" class="value" text-anchor="middle">5.0</text><rect x="791" y="365.1" width="58" height="79.9" fill="#2a9d8f" rx="3"/><text x="820" y="358.1" class="value" text-anchor="middle">4.7</text><rect x="869" y="380.4" width="58" height="64.6" fill="#c66b2d" rx="3"/><text x="898" y="373.4" class="value" text-anchor="middle">3.8</text><rect x="947" y="370.2" width="58" height="74.8" fill="#496f93" rx="3"/><text x="976" y="363.2" class="value" text-anchor="middle">4.4</text><rect x="1025" y="366.8" width="58" height="78.2" fill="#176f65" rx="3"/><text x="1054" y="359.8" class="value" text-anchor="middle">4.6</text><line x1="859" y1="122" x2="859" y2="445" stroke="#657080" stroke-width="2" stroke-dasharray="7 7"/><line x1="617" y1="445" x2="1083" y2="445" stroke="#657080"/><text x="855" y="478" class="label" text-anchor="middle">Rover</text><text x="855" y="508" class="sub" text-anchor="middle">RQ2 off PW−policy: +0.7 [+0.0, +1.4], Holm p=0.211</text><text x="855" y="537" class="sub" text-anchor="middle">RQ4 on PW−policy: +0.8 [-0.1, +1.7], Holm p=0.125</text><text x="855" y="566" class="sub" text-anchor="middle">Cross-cell: +0.6; interaction: +0.1 [-0.9, +1.1]</text><rect x="1200" y="167.9" width="58" height="277.1" fill="#e8953d" rx="3"/><text x="1229" y="160.9" class="value" text-anchor="middle">16.3</text><rect x="1278" y="178.1" width="58" height="266.9" fill="#7396b8" rx="3"/><text x="1307" y="171.1" class="value" text-anchor="middle">15.7</text><rect x="1356" y="144.1" width="58" height="300.9" fill="#2a9d8f" rx="3"/><text x="1385" y="137.1" class="value" text-anchor="middle">17.7</text><rect x="1434" y="178.1" width="58" height="266.9" fill="#c66b2d" rx="3"/><text x="1463" y="171.1" class="value" text-anchor="middle">15.7</text><rect x="1512" y="173.0" width="58" height="272.0" fill="#496f93" rx="3"/><text x="1541" y="166.0" class="value" text-anchor="middle">16.0</text><rect x="1590" y="130.5" width="58" height="314.5" fill="#176f65" rx="3"/><text x="1619" y="123.5" class="value" text-anchor="middle">18.5</text><line x1="1424" y1="122" x2="1424" y2="445" stroke="#657080" stroke-width="2" stroke-dasharray="7 7"/><line x1="1182" y1="445" x2="1648" y2="445" stroke="#657080"/><text x="1420" y="478" class="label" text-anchor="middle">MPrime</text><text x="1420" y="508" class="sub" text-anchor="middle">RQ2 off PW−policy: +1.4 [-0.2, +3.0], Holm p=0.211</text><text x="1420" y="537" class="sub" text-anchor="middle">RQ4 on PW−policy: +2.8 [+1.2, +4.4], Holm p=0.00781</text><text x="1420" y="566" class="sub" text-anchor="middle">Cross-cell: +2.2; interaction: +1.4 [-1.2, +4.0]</text><text x="890" y="620" class="sub" text-anchor="middle">Holm correction is within each cutoff/estimand across the three confirmed domains.</text></svg>