<svg xmlns="http://www.w3.org/2000/svg" width="1800" height="703" viewBox="0 0 1800 703"><rect width="100%" height="100%" fill="white"/><style>text{font-family:Segoe UI,Arial,sans-serif;fill:#17212b}.title{font-size:23px;font-weight:700}.sub{font-size:12px;fill:#536273}.label{font-size:11px}.head{font-size:13px;font-weight:700}</style><text x="28" y="34" class="title">RQ3 — Does the value head change Stage-2 refinement?</text><text x="28" y="57" class="sub">Validation-led primary analysis only. Effects are paired by seed; lines are 95% t-intervals; pH is Holm-adjusted within each RQ/stage/cutoff/estimand family.</text><rect x="20" y="78" width="1760" height="299" rx="5" fill="#fbfcfd" stroke="#d9e0e7"/><text x="36" y="103" class="head">VH-on direct: Stage 2 policy - Stage 1 policy</text><line x1="435.0" y1="115" x2="435.0" y2="344" stroke="#d9e0e7" stroke-width="1"/><text x="435.0" y="360" text-anchor="middle" class="sub">-50 pp</text><line x1="685.0" y1="115" x2="685.0" y2="344" stroke="#d9e0e7" stroke-width="1"/><text x="685.0" y="360" text-anchor="middle" class="sub">-25 pp</text><line x1="935.0" y1="115" x2="935.0" y2="344" stroke="#17212b" stroke-width="1.4"/><text x="935.0" y="360" text-anchor="middle" class="sub">+0 pp</text><line x1="1185.0" y1="115" x2="1185.0" y2="344" stroke="#d9e0e7" stroke-width="1"/><text x="1185.0" y="360" text-anchor="middle" class="sub">+25 pp</text><line x1="1435.0" y1="115" x2="1435.0" y2="344" stroke="#d9e0e7" stroke-width="1"/><text x="1435.0" y="360" text-anchor="middle" class="sub">+50 pp</text><text x="423" y="137" text-anchor="end" class="label">Block Grouping / Stage 2 / endpoint</text><line x1="676.8" y1="133" x2="883.2" y2="133" stroke="#536273" stroke-width="2"/><line x1="676.8" y1="129" x2="676.8" y2="137" stroke="#536273"/><line x1="883.2" y1="129" x2="883.2" y2="137" stroke="#536273"/><circle cx="780.0" cy="133" r="4.5" fill="#c43c39"/><text x="1445" y="137" class="sub">-15.5 pp; pH=0.0938</text><text x="423" y="171" text-anchor="end" class="label">Drone / Stage 2 / endpoint</text><line x1="868.2" y1="167" x2="991.8" y2="167" stroke="#536273" stroke-width="2"/><line x1="868.2" y1="163" x2="868.2" y2="171" stroke="#536273"/><line x1="991.8" y1="163" x2="991.8" y2="171" stroke="#536273"/><circle cx="930.0" cy="167" r="4.5" fill="#c43c39"/><text x="1445" y="171" class="sub">-0.5 pp; pH=1</text><text x="423" y="205" text-anchor="end" class="label">FO Counters / Stage 2 / endpoint</text><line x1="859.8" y1="201" x2="950.2" y2="201" stroke="#536273" stroke-width="2"/><line x1="859.8" y1="197" x2="859.8" y2="205" stroke="#536273"/><line x1="950.2" y1="197" x2="950.2" y2="205" stroke="#536273"/><circle cx="905.0" cy="201" r="4.5" fill="#c43c39"/><text x="1445" y="205" class="sub">-3.0 pp; pH=1</text><text x="423" y="239" text-anchor="end" class="label">Rover / Stage 2 / endpoint</text><line x1="919.7" y1="235" x2="960.3" y2="235" stroke="#536273" stroke-width="2"/><line x1="919.7" y1="231" x2="919.7" y2="239" stroke="#536273"/><line x1="960.3" y1="231" x2="960.3" y2="239" stroke="#536273"/><circle cx="940.0" cy="235" r="4.5" fill="#238b45"/><text x="1445" y="239" class="sub">+0.5 pp; pH=1</text><text x="423" y="273" text-anchor="end" class="label">Counters / Stage 2 / endpoint</text><line x1="830.8" y1="269" x2="1147.7" y2="269" stroke="#536273" stroke-width="2"/><line x1="830.8" y1="265" x2="830.8" y2="273" stroke="#536273"/><line x1="1147.7" y1="265" x2="1147.7" y2="273" stroke="#536273"/><circle cx="989.2" cy="269" r="4.5" fill="#238b45"/><text x="1445" y="273" class="sub">+5.4 pp; pH=1</text><text x="423" y="307" text-anchor="end" class="label">MPrime / Stage 2 / endpoint</text><line x1="905.9" y1="303" x2="1064.1" y2="303" stroke="#536273" stroke-width="2"/><line x1="905.9" y1="299" x2="905.9" y2="307" stroke="#536273"/><line x1="1064.1" y1="299" x2="1064.1" y2="307" stroke="#536273"/><circle cx="985.0" cy="303" r="4.5" fill="#238b45"/><text x="1445" y="307" class="sub">+5.0 pp; pH=1</text><rect x="20" y="387" width="1760" height="299" rx="5" fill="#fbfcfd" stroke="#d9e0e7"/><text x="36" y="412" class="head">VH interaction: VH-on refinement - VH-off refinement</text><line x1="435.0" y1="424" x2="435.0" y2="653" stroke="#d9e0e7" stroke-width="1"/><text x="435.0" y="669" text-anchor="middle" class="sub">-50 pp</text><line x1="685.0" y1="424" x2="685.0" y2="653" stroke="#d9e0e7" stroke-width="1"/><text x="685.0" y="669" text-anchor="middle" class="sub">-25 pp</text><line x1="935.0" y1="424" x2="935.0" y2="653" stroke="#17212b" stroke-width="1.4"/><text x="935.0" y="669" text-anchor="middle" class="sub">+0 pp</text><line x1="1185.0" y1="424" x2="1185.0" y2="653" stroke="#d9e0e7" stroke-width="1"/><text x="1185.0" y="669" text-anchor="middle" class="sub">+25 pp</text><line x1="1435.0" y1="424" x2="1435.0" y2="653" stroke="#d9e0e7" stroke-width="1"/><text x="1435.0" y="669" text-anchor="middle" class="sub">+50 pp</text><text x="423" y="446" text-anchor="end" class="label">Block Grouping / Stage 2 / endpoint</text><line x1="704.5" y1="442" x2="885.5" y2="442" stroke="#536273" stroke-width="2"/><line x1="704.5" y1="438" x2="704.5" y2="446" stroke="#536273"/><line x1="885.5" y1="438" x2="885.5" y2="446" stroke="#536273"/><circle cx="795.0" cy="442" r="4.5" fill="#c43c39"/><text x="1445" y="446" class="sub">-14.0 pp; pH=0.105</text><text x="423" y="480" text-anchor="end" class="label">Drone / Stage 2 / endpoint</text><line x1="791.0" y1="476" x2="989.0" y2="476" stroke="#536273" stroke-width="2"/><line x1="791.0" y1="472" x2="791.0" y2="480" stroke="#536273"/><line x1="989.0" y1="472" x2="989.0" y2="480" stroke="#536273"/><circle cx="890.0" cy="476" r="4.5" fill="#c43c39"/><text x="1445" y="480" class="sub">-4.5 pp; pH=1</text><text x="423" y="514" text-anchor="end" class="label">FO Counters / Stage 2 / endpoint</text><line x1="922.2" y1="510" x2="1017.8" y2="510" stroke="#536273" stroke-width="2"/><line x1="922.2" y1="506" x2="922.2" y2="514" stroke="#536273"/><line x1="1017.8" y1="506" x2="1017.8" y2="514" stroke="#536273"/><circle cx="970.0" cy="510" r="4.5" fill="#238b45"/><text x="1445" y="514" class="sub">+3.5 pp; pH=1</text><text x="423" y="548" text-anchor="end" class="label">Rover / Stage 2 / endpoint</text><line x1="919.7" y1="544" x2="960.3" y2="544" stroke="#536273" stroke-width="2"/><line x1="919.7" y1="540" x2="919.7" y2="548" stroke="#536273"/><line x1="960.3" y1="540" x2="960.3" y2="548" stroke="#536273"/><circle cx="940.0" cy="544" r="4.5" fill="#238b45"/><text x="1445" y="548" class="sub">+0.5 pp; pH=1</text><text x="423" y="582" text-anchor="end" class="label">Counters / Stage 2 / endpoint</text><line x1="496.5" y1="578" x2="1332.8" y2="578" stroke="#536273" stroke-width="2"/><line x1="496.5" y1="574" x2="496.5" y2="582" stroke="#536273"/><line x1="1332.8" y1="574" x2="1332.8" y2="582" stroke="#536273"/><circle cx="914.7" cy="578" r="4.5" fill="#c43c39"/><text x="1445" y="582" class="sub">-2.0 pp; pH=1</text><text x="423" y="616" text-anchor="end" class="label">MPrime / Stage 2 / endpoint</text><line x1="853.6" y1="612" x2="1096.4" y2="612" stroke="#536273" stroke-width="2"/><line x1="853.6" y1="608" x2="853.6" y2="616" stroke="#536273"/><line x1="1096.4" y1="608" x2="1096.4" y2="616" stroke="#536273"/><circle cx="975.0" cy="612" r="4.5" fill="#238b45"/><text x="1445" y="616" class="sub">+4.0 pp; pH=1</text><text x="435" y="691" class="sub">Left: lower coverage. Right: higher coverage. * Holm-adjusted p &lt; .05.</text></svg>