<svg xmlns="http://www.w3.org/2000/svg" width="1060" height="570" viewBox="0 0 1060 570"><rect width="100%" height="100%" fill="white"/><style>text{font-family:Segoe UI,Arial,sans-serif;fill:#17212b}.title{font-size:24px;font-weight:700}.sub{font-size:13px;fill:#52616f}.label{font-size:12px}.small{font-size:10px;fill:#52616f}.value{font-size:12px;font-weight:700}</style><text x="36" y="38" class="title">Candidate D — why MPrime validation needed Phase B</text><text x="36" y="61" class="sub">Stage 1 has weak rank agreement and nonzero regret; Stage 2 is completely saturated, so it cannot rank checkpoints.</text><text x="295.0" y="96.0" class="value" text-anchor="middle">Stage 1: rank agreement vs selection regret</text><line x1="90.0" y1="120.0" x2="90.0" y2="450.0" stroke="#d9e0e7" stroke-width="1.0"/><text x="90.0" y="472.0" class="small" text-anchor="middle">-0.5</text><line x1="226.7" y1="120.0" x2="226.7" y2="450.0" stroke="#d9e0e7" stroke-width="1.0"/><text x="226.7" y="472.0" class="small" text-anchor="middle">0</text><line x1="363.3" y1="120.0" x2="363.3" y2="450.0" stroke="#d9e0e7" stroke-width="1.0"/><text x="363.3" y="472.0" class="small" text-anchor="middle">0.5</text><line x1="500.0" y1="120.0" x2="500.0" y2="450.0" stroke="#d9e0e7" stroke-width="1.0"/><text x="500.0" y="472.0" class="small" text-anchor="middle">1.0</text><line x1="90.0" y1="450.0" x2="500.0" y2="450.0" stroke="#d9e0e7" stroke-width="1.0"/><text x="80.0" y="454.0" class="small" text-anchor="end">0</text><line x1="90.0" y1="367.5" x2="500.0" y2="367.5" stroke="#d9e0e7" stroke-width="1.0"/><text x="80.0" y="371.5" class="small" text-anchor="end">2</text><line x1="90.0" y1="285.0" x2="500.0" y2="285.0" stroke="#d9e0e7" stroke-width="1.0"/><text x="80.0" y="289.0" class="small" text-anchor="end">4</text><line x1="90.0" y1="202.5" x2="500.0" y2="202.5" stroke="#d9e0e7" stroke-width="1.0"/><text x="80.0" y="206.5" class="small" text-anchor="end">6</text><line x1="90.0" y1="120.0" x2="500.0" y2="120.0" stroke="#d9e0e7" stroke-width="1.0"/><text x="80.0" y="124.0" class="small" text-anchor="end">8</text><circle cx="195.7" cy="367.5" r="6.0" fill="#1769aa" stroke="white" opacity="1.0"/><circle cx="293.0" cy="408.8" r="6.0" fill="#1769aa" stroke="white" opacity="1.0"/><circle cx="226.1" cy="326.2" r="6.0" fill="#1769aa" stroke="white" opacity="1.0"/><circle cx="323.6" cy="367.5" r="6.0" fill="#1769aa" stroke="white" opacity="1.0"/><circle cx="358.4" cy="285.0" r="6.0" fill="#1769aa" stroke="white" opacity="1.0"/><circle cx="191.4" cy="202.5" r="6.0" fill="#1769aa" stroke="white" opacity="1.0"/><circle cx="291.1" cy="326.2" r="6.0" fill="#1769aa" stroke="white" opacity="1.0"/><circle cx="133.6" cy="285.0" r="6.0" fill="#1769aa" stroke="white" opacity="1.0"/><circle cx="294.9" cy="367.5" r="6.0" fill="#1769aa" stroke="white" opacity="1.0"/><circle cx="223.8" cy="285.0" r="6.0" fill="#1769aa" stroke="white" opacity="1.0"/><circle cx="356.4" cy="450.0" r="6.0" fill="#e07a1f" stroke="white" opacity="1.0"/><circle cx="345.5" cy="326.2" r="6.0" fill="#e07a1f" stroke="white" opacity="1.0"/><circle cx="209.9" cy="161.2" r="6.0" fill="#e07a1f" stroke="white" opacity="1.0"/><circle cx="425.6" cy="450.0" r="6.0" fill="#e07a1f" stroke="white" opacity="1.0"/><circle cx="359.9" cy="326.2" r="6.0" fill="#e07a1f" stroke="white" opacity="1.0"/><circle cx="364.1" cy="408.8" r="6.0" fill="#e07a1f" stroke="white" opacity="1.0"/><circle cx="236.9" cy="326.2" r="6.0" fill="#e07a1f" stroke="white" opacity="1.0"/><circle cx="304.5" cy="367.5" r="6.0" fill="#e07a1f" stroke="white" opacity="1.0"/><circle cx="141.9" cy="285.0" r="6.0" fill="#e07a1f" stroke="white" opacity="1.0"/><circle cx="155.0" cy="367.5" r="6.0" fill="#e07a1f" stroke="white" opacity="1.0"/><text x="295.0" y="493.0" class="small" text-anchor="middle">Spearman(validation, test)</text><text x="90.0" y="110.0" class="small" text-anchor="start">Selection regret (plans)</text><text x="780.0" y="96.0" class="value" text-anchor="middle">Stage 2: fraction of checkpoints at max validation</text><rect x="635.0" y="120.0" width="52.0" height="330.0" fill="#1769aa" stroke="none" opacity="1.0"/><text x="661.0" y="469.0" class="small" text-anchor="middle">validation/off</text><text x="661.0" y="112.0" class="value" text-anchor="middle">100%</text><rect x="717.0" y="120.0" width="52.0" height="330.0" fill="#e07a1f" stroke="none" opacity="1.0"/><text x="743.0" y="469.0" class="small" text-anchor="middle">validation/on</text><text x="743.0" y="112.0" class="value" text-anchor="middle">100%</text><rect x="799.0" y="120.0" width="52.0" height="330.0" fill="#1769aa" stroke="none" opacity="1.0"/><text x="825.0" y="469.0" class="small" text-anchor="middle">terminal/off</text><text x="825.0" y="112.0" class="value" text-anchor="middle">100%</text><rect x="881.0" y="120.0" width="52.0" height="330.0" fill="#e07a1f" stroke="none" opacity="1.0"/><text x="907.0" y="469.0" class="small" text-anchor="middle">terminal/on</text><text x="907.0" y="112.0" class="value" text-anchor="middle">100%</text><text x="780.0" y="499.0" class="sub" text-anchor="middle">All four groups = 100% saturation</text><text x="90.0" y="525.0" class="sub" text-anchor="start">Best for: explaining why the original corrected validation set was better than the old one but still inadequate for Stage-2 selection.</text></svg>